<svg width="200" height="43" viewBox="0 0 200 43" fill="none" xmlns="http://www.w3.org/2000/svg">
<g clip-path="url(#clip0_55_18369)">
<path d="M96.1703 9.17328H90.6384V12.47H96.0285V15.05H90.6384V20.3533H87.9434V6.44995H96.1703V9.02995V9.17328Z" fill="white"/>
<path d="M109.787 18.49C108.369 19.9234 106.667 20.64 104.681 20.64C102.695 20.64 100.993 19.9234 99.5747 18.49C98.1562 17.0567 97.447 15.3367 97.447 13.33C97.447 11.3234 98.1562 9.60335 99.5747 8.17002C100.993 6.73669 102.695 6.02002 104.681 6.02002C106.667 6.02002 108.369 6.73669 109.787 8.17002C111.206 9.60335 111.915 11.3234 111.915 13.33C111.915 15.3367 111.206 17.0567 109.787 18.49ZM101.56 16.6267C102.412 17.4867 103.404 17.9167 104.681 17.9167C105.958 17.9167 106.951 17.4867 107.802 16.6267C108.653 15.7667 109.078 14.62 109.078 13.33C109.078 12.04 108.653 10.8934 107.802 10.0334C106.951 9.17335 105.958 8.74335 104.681 8.74335C103.404 8.74335 102.412 9.17335 101.56 10.0334C100.709 10.8934 100.284 12.04 100.284 13.33C100.284 14.62 100.709 15.7667 101.56 16.6267Z" fill="white"/>
<path d="M118.724 20.6399C117.163 20.6399 115.887 20.2099 114.894 19.3499C113.901 18.4899 113.475 17.3433 113.475 15.9099V6.59326H116.17V15.7666C116.17 16.4833 116.312 17.0566 116.738 17.4866C117.163 17.9166 117.731 18.0599 118.724 18.0599C119.716 18.0599 120.284 17.9166 120.709 17.4866C121.135 17.0566 121.277 16.4833 121.277 15.7666V6.59326H123.972V15.9099C123.972 17.3433 123.546 18.4899 122.553 19.3499C121.56 20.2099 120.284 20.6399 118.724 20.6399Z" fill="white"/>
<path d="M133.901 20.3533L131.064 15.48H129.078V20.3533H126.383V6.44995H131.915C133.192 6.44995 134.326 6.87995 135.177 7.73995C136.028 8.59995 136.454 9.74662 136.454 11.0366C136.454 12.3266 136.17 12.7566 135.745 13.4733C135.319 14.19 134.61 14.7633 133.759 15.1933L136.738 20.3533H133.759H133.901ZM129.078 9.02995V13.1866H131.915C132.482 13.1866 132.908 13.0433 133.192 12.6133C133.617 12.1833 133.759 11.7533 133.759 11.18C133.759 10.6066 133.617 10.1766 133.192 9.74662C132.766 9.31662 132.34 9.17328 131.915 9.17328H129.078V9.02995Z" fill="white"/>
<path d="M140.851 20.3533L137.163 6.44995H140L142.695 16.77L145.532 6.44995H147.943L150.78 16.6266L153.334 6.44995H155.887L152.341 20.3533H149.22L146.667 11.18L144.114 20.3533H140.851Z" fill="white"/>
<path d="M157.73 6.44995H160.426V20.3533H157.73V6.44995Z" fill="white"/>
<path d="M170.922 6.44995H173.617V20.3533H171.631L165.816 11.8966V20.3533H163.121V6.44995H165.106L170.922 14.9066V6.44995Z" fill="white"/>
<path d="M181.702 6.44997C183.546 6.44997 185.107 7.16664 186.383 8.45664C187.66 9.74664 188.227 11.4666 188.227 13.33C188.227 15.1933 187.66 16.9133 186.383 18.2033C185.107 19.4933 183.546 20.21 181.702 20.21H176.312V6.30664H181.702V6.44997ZM181.702 17.7733C182.837 17.7733 183.83 17.3433 184.539 16.6266C185.248 15.7666 185.674 14.7633 185.674 13.4733C185.674 12.1833 185.248 11.18 184.539 10.32C183.83 9.45998 182.837 9.17331 181.702 9.17331H179.007V17.7733H181.702Z" fill="white"/>
<path d="M194.326 20.64C192.908 20.64 191.773 20.3533 190.922 19.78C189.929 19.2066 189.362 18.3466 188.936 17.3433L191.206 15.91C191.773 17.3433 192.766 18.06 194.326 18.06C195.887 18.06 195.603 18.06 196.028 17.63C196.312 17.3433 196.596 17.0566 196.596 16.6266C196.596 16.1966 196.312 15.7666 195.887 15.48C195.461 15.1933 194.752 14.9066 193.617 14.62C193.05 14.4766 192.482 14.19 192.057 14.0466C191.631 13.9033 191.206 13.6166 190.78 13.33C190.355 13.0433 190.071 12.6133 189.787 12.1833C189.504 11.7533 189.504 11.18 189.504 10.4633C189.504 9.17331 189.929 8.16998 190.78 7.45331C191.631 6.73664 192.766 6.30664 193.901 6.30664C195.036 6.30664 196.028 6.59331 196.88 7.16664C197.731 7.73997 198.44 8.45664 198.865 9.45998L196.596 10.75C196.028 9.60331 195.177 9.02997 194.043 9.02997C192.908 9.02997 193.05 9.02998 192.766 9.45998C192.482 9.74664 192.341 10.0333 192.341 10.4633C192.341 10.8933 192.482 11.3233 192.908 11.4666C193.333 11.7533 193.901 12.04 195.036 12.3266C195.461 12.3266 195.745 12.6133 196.028 12.6133C196.312 12.6133 196.596 12.7566 196.88 12.9C197.305 13.0433 197.589 13.1866 197.731 13.33C197.872 13.33 198.156 13.6166 198.44 13.9033C198.724 14.19 198.865 14.3333 199.007 14.62C199.007 14.9066 199.291 15.1933 199.291 15.48C199.291 15.7666 199.433 16.1966 199.433 16.6266C199.433 17.9166 199.007 18.92 198.014 19.6366C197.021 20.3533 195.887 20.7833 194.468 20.7833L194.326 20.64Z" fill="white"/>
<path d="M89.9292 38.4133C89.5036 38.4133 89.22 38.4133 89.0781 38.27C88.7944 38.27 88.6526 37.9833 88.5107 37.6967C88.5107 37.41 88.3689 37.1233 88.227 36.8367C88.0852 36.55 88.227 36.12 88.227 35.69V34.83H89.22V35.69C89.22 36.2633 89.22 36.8367 89.22 36.98C89.22 37.2667 89.5036 37.41 89.7873 37.41C90.071 37.41 90.2129 37.41 90.2129 37.2667C90.2129 37.2667 90.3547 36.98 90.3547 36.8367C90.3547 36.6933 90.3547 36.4067 90.3547 35.9767C90.3547 35.5467 90.3547 35.26 90.2129 34.9733C90.071 34.6867 89.9292 34.4 89.6455 34.1133L89.0781 33.54C88.9363 33.3967 88.7944 33.11 88.5107 32.9667C88.3689 32.8233 88.227 32.5367 88.0852 32.25C88.0852 31.9633 87.9434 31.6767 87.9434 31.39C87.9434 31.1033 87.9434 30.53 88.0852 30.2433C88.0852 29.9567 88.3689 29.67 88.6526 29.5267C88.9363 29.3833 89.22 29.24 89.7873 29.24C90.3547 29.24 90.4966 29.24 90.6384 29.3833C90.9221 29.3833 91.0639 29.67 91.0639 29.9567C91.0639 30.2433 91.2058 30.53 91.3476 30.8167C91.3476 31.1033 91.3476 31.5333 91.3476 31.82V32.3933H90.3547V31.82C90.3547 31.39 90.3547 31.1033 90.3547 30.96C90.3547 30.6733 90.3547 30.53 90.2129 30.3867C90.071 30.2433 89.9292 30.2433 89.7873 30.2433C89.6455 30.2433 89.5036 30.2433 89.3618 30.2433C89.22 30.2433 89.22 30.3867 89.0781 30.6733C89.0781 30.8167 89.0781 31.1033 89.0781 31.39C89.0781 31.6767 89.0781 31.82 89.0781 31.9633C89.0781 32.1067 89.22 32.25 89.3618 32.3933C89.5036 32.5367 89.6455 32.68 89.7873 32.8233L90.3547 33.54C90.6384 33.8267 90.9221 34.2567 91.2058 34.6867C91.4895 35.1167 91.4895 35.5467 91.4895 36.12C91.4895 36.6933 91.4895 36.98 91.3476 37.41C91.2058 37.84 91.0639 37.9833 90.7802 38.27C90.4966 38.4133 90.2129 38.5567 89.7873 38.5567L89.9292 38.4133Z" fill="white"/>
<path d="M93.759 38.27V29.24H95.603C96.0285 29.24 96.3122 29.24 96.4541 29.3833C96.7378 29.3833 96.8796 29.67 97.0214 29.9567C97.0214 30.2433 97.1633 30.3867 97.3051 30.8167C97.3051 31.1033 97.3051 31.5333 97.3051 31.82C97.3051 32.5367 97.3051 33.11 97.3051 33.54C97.3051 33.97 97.0214 34.2567 96.7378 34.4C96.4541 34.5433 96.1704 34.6867 95.7449 34.6867H95.0356V38.27H94.0427H93.759ZM94.7519 33.8267H95.4612C95.603 33.8267 95.8867 33.8267 95.8867 33.6833C95.8867 33.54 96.0285 33.3967 96.1704 33.11C96.1704 32.8233 96.1704 32.3933 96.1704 31.9633C96.1704 31.2467 96.1704 30.8167 96.1704 30.53C96.1704 30.2433 95.8867 30.1 95.603 30.1H94.8938V33.8267H94.7519Z" fill="white"/>
<path d="M100.993 38.4133C100.567 38.4133 100.142 38.4133 100 38.1266C99.7163 37.9833 99.5745 37.6966 99.4326 37.2666C99.4326 36.8366 99.2908 36.4066 99.2908 35.8333V31.82C99.2908 31.2466 99.2908 30.8166 99.4326 30.53C99.4326 30.1 99.7163 29.8133 100 29.67C100.284 29.5266 100.567 29.3833 101.135 29.3833C101.702 29.3833 101.844 29.3833 101.986 29.5266C102.128 29.67 102.411 29.8133 102.553 30.1C102.553 30.3866 102.695 30.53 102.837 30.96C102.837 31.2466 102.837 31.6766 102.837 31.9633V35.9766C102.837 36.55 102.837 37.1233 102.695 37.41C102.695 37.84 102.411 38.1266 102.128 38.27C101.844 38.4133 101.56 38.5566 101.135 38.5566L100.993 38.4133ZM100.993 37.5533C101.135 37.5533 101.277 37.5533 101.418 37.41C101.418 37.41 101.56 37.1233 101.56 36.8366C101.56 36.55 101.56 36.2633 101.56 35.8333V31.82C101.56 31.2466 101.56 30.8166 101.56 30.6733C101.56 30.3866 101.277 30.2433 100.993 30.2433C100.709 30.2433 100.567 30.2433 100.426 30.6733C100.426 30.96 100.284 31.39 100.284 31.82V35.8333C100.284 36.2633 100.284 36.6933 100.284 36.8366C100.284 37.1233 100.284 37.2666 100.567 37.41C100.567 37.41 100.851 37.5533 100.993 37.5533Z" fill="white"/>
<path d="M105.106 38.27V29.24H106.95C107.376 29.24 107.801 29.24 107.943 29.5267C108.227 29.67 108.369 29.9567 108.369 30.2433C108.369 30.53 108.369 30.96 108.369 31.5333C108.369 32.1067 108.369 32.5367 108.227 32.8233C108.227 33.11 107.943 33.3967 107.518 33.3967C107.66 33.3967 107.801 33.3967 107.943 33.54C107.943 33.54 108.085 33.8267 108.227 34.1133C108.227 34.4 108.227 34.6867 108.227 35.1167C108.227 35.5467 108.227 35.9767 108.227 36.6933V36.98C108.227 36.98 108.227 37.2667 108.227 37.41C108.227 37.41 108.227 37.6967 108.227 37.84V38.1267V38.27H107.234C107.234 38.27 107.234 38.27 107.234 38.1267C107.234 38.1267 107.234 37.84 107.234 37.6967C107.234 37.5533 107.234 37.2667 107.234 37.1233C107.234 36.8367 107.234 36.55 107.234 36.2633V35.26C107.234 34.9733 107.234 34.6867 107.234 34.5433C107.234 34.4 107.234 34.2567 107.092 34.1133C106.95 33.97 106.809 34.1133 106.525 34.1133H105.958V38.4133H104.965L105.106 38.27ZM106.099 33.11H106.809C106.95 33.11 107.092 33.11 107.234 33.11C107.234 33.11 107.376 32.8233 107.376 32.68C107.376 32.3933 107.376 32.1067 107.376 31.6767C107.376 31.2467 107.376 30.96 107.376 30.6733C107.376 30.3867 107.376 30.3867 107.234 30.2433C107.234 30.2433 106.95 30.2433 106.809 30.2433H106.099V33.2533V33.11Z" fill="white"/>
<path d="M111.348 38.27V30.1H110.355V29.24H113.333V30.1H112.482V38.27H111.489H111.348Z" fill="white"/>
<path d="M116.596 38.4133C116.17 38.4133 115.887 38.4133 115.745 38.27C115.461 38.27 115.319 37.9833 115.177 37.6967C115.177 37.41 115.036 37.1233 114.894 36.8367C114.752 36.55 114.894 36.12 114.894 35.69V34.83H115.887V35.69C115.887 36.2633 115.887 36.8367 115.887 36.98C115.887 37.2667 116.17 37.41 116.454 37.41C116.738 37.41 116.88 37.41 116.88 37.2667C116.88 37.2667 117.021 36.98 117.021 36.8367C117.021 36.6933 117.021 36.4067 117.021 35.9767C117.021 35.5467 117.021 35.26 116.88 34.9733C116.738 34.6867 116.596 34.4 116.312 34.1133L115.745 33.54C115.603 33.3967 115.461 33.11 115.177 32.9667C115.036 32.8233 114.894 32.5367 114.752 32.25C114.752 31.9633 114.61 31.6767 114.61 31.39C114.61 31.1033 114.61 30.53 114.752 30.2433C114.752 29.9567 115.036 29.67 115.319 29.5267C115.603 29.3833 115.887 29.24 116.454 29.24C117.021 29.24 117.163 29.24 117.305 29.3833C117.589 29.3833 117.731 29.67 117.731 29.9567C117.731 30.2433 117.873 30.53 118.014 30.8167C118.014 31.1033 118.014 31.5333 118.014 31.82V32.3933H117.021V31.82C117.021 31.39 117.021 31.1033 117.021 30.96C117.021 30.6733 117.021 30.53 116.88 30.3867C116.738 30.2433 116.596 30.2433 116.454 30.2433C116.312 30.2433 116.17 30.2433 116.029 30.2433C115.887 30.2433 115.887 30.3867 115.745 30.6733C115.745 30.8167 115.745 31.1033 115.745 31.39C115.745 31.6767 115.745 31.82 115.745 31.9633C115.745 32.1067 115.887 32.25 116.029 32.3933C116.17 32.5367 116.312 32.68 116.454 32.8233L117.021 33.54C117.305 33.8267 117.589 34.2567 117.873 34.6867C118.156 35.1167 118.156 35.5467 118.156 36.12C118.156 36.6933 118.156 36.98 118.014 37.41C117.873 37.84 117.731 37.9833 117.447 38.27C117.163 38.4133 116.88 38.5567 116.454 38.5567L116.596 38.4133Z" fill="white"/>
<path d="M124.255 38.4133C123.83 38.4133 123.404 38.27 123.121 37.9833C122.837 37.6966 122.695 37.2666 122.695 36.55C122.695 35.8333 122.695 35.69 122.837 35.4033C122.979 35.1166 123.121 34.6866 123.404 34.4C123.546 34.1133 123.83 33.8266 124.114 33.54C123.972 32.9666 123.688 32.5366 123.546 32.1066C123.546 31.6766 123.404 31.2466 123.404 31.1033C123.404 30.53 123.404 30.1 123.83 29.8133C124.114 29.5266 124.397 29.3833 124.965 29.3833C125.532 29.3833 125.532 29.3833 125.816 29.5266C125.957 29.5266 126.241 29.8133 126.241 30.1C126.241 30.3866 126.241 30.6733 126.241 31.1033C126.241 31.5333 126.241 31.82 126.099 32.1066C126.099 32.3933 125.816 32.68 125.674 32.9666C125.532 33.2533 125.248 33.54 125.106 33.8266L125.957 35.8333C125.957 35.5466 126.241 35.4033 126.383 35.1166C126.525 34.83 126.667 34.6866 126.809 34.4L127.234 35.1166C127.092 35.4033 126.809 35.69 126.667 35.9766C126.525 36.2633 126.383 36.55 126.241 36.8366L126.95 38.5566H125.957L125.532 37.6966C125.532 37.84 125.248 38.1266 125.106 38.27C125.106 38.4133 124.823 38.5566 124.681 38.5566C124.539 38.5566 124.255 38.5566 123.972 38.5566L124.255 38.4133ZM124.397 37.5533C124.397 37.5533 124.681 37.5533 124.823 37.5533C124.823 37.5533 124.965 37.41 125.106 37.2666C125.106 37.1233 125.248 36.98 125.39 36.6933L124.539 34.5433C124.539 34.6866 124.255 34.9733 124.114 35.1166C124.114 35.4033 123.972 35.5466 123.83 35.8333C123.83 36.12 123.83 36.2633 123.83 36.55C123.83 36.98 123.83 37.2666 123.83 37.41C123.83 37.5533 124.114 37.6966 124.397 37.6966V37.5533ZM124.681 32.8233C124.823 32.5366 125.106 32.25 125.106 31.9633C125.106 31.6766 125.248 31.2466 125.248 30.96C125.248 30.6733 125.248 30.3866 125.248 30.2433C125.248 30.1 124.965 29.9566 124.823 29.9566C124.681 29.9566 124.539 29.9566 124.539 29.9566C124.539 29.9566 124.539 30.1 124.397 30.2433C124.397 30.2433 124.397 30.3866 124.397 30.53C124.397 30.53 124.397 30.6733 124.397 30.8166C124.397 30.96 124.397 31.2466 124.397 31.5333C124.397 31.82 124.539 32.25 124.681 32.68V32.8233Z" fill="white"/>
<path d="M132.624 38.27V29.24H135.319V30.1H133.759V33.2533H135.319V34.1133H133.759V37.41H135.461V38.27H132.766H132.624Z" fill="white"/>
<path d="M137.447 38.27V29.24H138.298L140.426 35.4033V32.8233V29.24H141.418V38.27H140.709L138.723 32.1067V34.4V38.27H137.73H137.447Z" fill="white"/>
<path d="M143.972 38.27V30.1H142.979V29.24H145.957V30.1H145.106V38.27H144.114H143.972Z" fill="white"/>
<path d="M147.943 38.27V29.24H150.638V30.1H149.078V33.2533H150.638V34.1133H149.078V37.41H150.78V38.27H148.085H147.943Z" fill="white"/>
<path d="M152.766 38.27V29.24H154.61C155.036 29.24 155.461 29.24 155.603 29.5267C155.887 29.67 156.029 29.9567 156.029 30.2433C156.029 30.53 156.029 30.96 156.029 31.5333C156.029 32.1067 156.029 32.5367 155.887 32.8233C155.887 33.11 155.603 33.3967 155.177 33.3967C155.319 33.3967 155.461 33.3967 155.603 33.54C155.745 33.6833 155.745 33.8267 155.887 34.1133C155.887 34.4 155.887 34.6867 155.887 35.1167C155.887 35.5467 155.887 35.9767 155.887 36.6933V36.98C155.887 36.98 155.887 37.2667 155.887 37.41C155.887 37.41 155.887 37.6967 155.887 37.84V38.1267V38.27H154.894C154.894 38.27 154.894 38.27 154.894 38.1267C154.894 38.1267 154.894 37.84 154.894 37.6967C154.894 37.5533 154.894 37.2667 154.894 37.1233C154.894 36.98 154.894 36.55 154.894 36.2633V35.26C154.894 34.9733 154.894 34.6867 154.894 34.5433C154.894 34.4 154.894 34.2567 154.752 34.1133C154.61 33.97 154.468 34.1133 154.185 34.1133H153.617V38.4133H152.624L152.766 38.27ZM153.759 33.11H154.468C154.61 33.11 154.752 33.11 154.894 33.11C154.894 33.11 155.036 32.8233 155.036 32.68C155.036 32.3933 155.036 32.1067 155.036 31.6767C155.036 31.2467 155.036 30.96 155.036 30.6733C155.036 30.3867 155.036 30.3867 154.894 30.2433C154.752 30.1 154.61 30.2433 154.468 30.2433H153.759V33.2533V33.11Z" fill="white"/>
<path d="M159.007 38.27V30.1H158.014V29.24H160.993V30.1H160.142V38.27H159.149H159.007Z" fill="white"/>
<path d="M162.27 38.27L163.688 29.24H164.965L166.383 38.27H165.39L165.106 36.55H163.546L163.262 38.27H162.27ZM163.688 35.69H165.106L164.397 30.96L163.688 35.69Z" fill="white"/>
<path d="M168.511 38.27V29.24H169.504V38.27H168.511Z" fill="white"/>
<path d="M172.057 38.27V29.24H172.908L175.036 35.4033V32.8233V29.24H176.029V38.27H175.319L173.333 32.1067V34.4V38.27H172.341H172.057Z" fill="white"/>
<path d="M178.156 38.27V29.24H179.433L180.851 36.4067L182.128 29.24H183.404V38.27H182.553V31.5333L181.277 38.27H180.568L179.149 31.5333V34.9733V38.4133H178.298L178.156 38.27Z" fill="white"/>
<path d="M185.816 38.27V29.24H188.511V30.1H186.95V33.2533H188.511V34.1133H186.95V37.41H188.653V38.27H185.958H185.816Z" fill="white"/>
<path d="M190.78 38.27V29.24H191.631L193.759 35.4033V32.8233V29.24H194.752V38.27H194.043L192.057 32.1067V34.4V38.27H191.064H190.78Z" fill="white"/>
<path d="M197.305 38.27V30.1H196.312V29.24H199.291V30.1H198.44V38.27H197.447H197.305Z" fill="white"/>
<path d="M0 8.60011H35.1773L37.7305 0.860107H0V8.60011Z" fill="white"/>
<path d="M50.0708 13.1868L42.6949 27.5201L34.8935 13.1868H11.0637V20.9268H30.78C32.624 24.3668 42.5531 42.8568 42.6949 42.7135C42.8368 42.7135 58.1559 13.0435 58.1559 13.0435H50.0708V13.1868Z" fill="white"/>
<path d="M62.2694 13.1868L51.0637 34.6868L55.1772 42.7134L70.78 13.1868C70.78 13.1868 62.4112 13.1868 62.2694 13.1868Z" fill="white"/>
</g>
<defs>
<clipPath id="clip0_55_18369">
<rect width="200" height="43" fill="white"/>
</clipPath>
</defs>
</svg>
