<svg width="281" height="91" viewBox="0 0 281 91" fill="none" xmlns="http://www.w3.org/2000/svg">
<path d="M52.1547 42.0216L35.1214 41.8776C36.8094 39.2936 37.1734 36.539 37.4214 33.0003L64.1334 32.8723L58.776 60.6976L50.6094 64.1563C41.2374 68.1256 30.632 69.5763 20.7694 67.0083C8.65469 63.8536 0.481358 53.927 0.026691 41.4296C-0.529309 26.1656 7.63869 12.503 21.0227 5.25498C35.1427 -2.39169 55.64 -2.26502 65.976 9.44298L56.7134 16.2096C47.076 7.21632 32.1094 8.83364 22.392 16.5416C15.3587 22.1216 11.1347 31.0803 11.8667 40.5563C12.5094 48.8763 17.7734 55.4323 25.828 57.6536C34.3347 59.999 43.1267 57.9496 50.228 52.811L52.1547 42.0216Z" fill="#002103"/>
<path d="M207.666 54.9685C211.708 51.8285 213.286 46.8672 211.096 42.4872C208.882 39.6512 205.439 38.3019 201.794 38.2886L185.898 38.2299L182.335 57.9645L196.316 58.0365C200.324 58.0579 204.238 57.2725 207.666 54.9685ZM213.082 22.1819C213.919 19.5806 213.708 17.0846 212.23 15.0459C211.348 13.8299 209.374 12.3072 207.187 12.2432L190.619 11.7645L187.586 29.5739L203.506 29.2192C207.743 29.1246 211.719 26.4166 213.082 22.1819ZM212.651 33.0926C216.784 35.0419 220.427 37.7272 221.414 42.4059C223.11 50.4379 219.443 58.2059 212.511 62.5392C207.948 65.1472 202.912 66.5872 197.516 66.5952L171.088 66.6299L182.898 3.01256L205.431 3.05922C209.314 3.06722 212.983 3.95389 216.367 5.52989C219.344 7.13256 221.594 9.36189 222.85 12.5139C225.263 20.8486 221.416 29.3979 212.651 33.0926Z" fill="#002103"/>
<path d="M274.364 66.6528L239.971 66.6355L241.117 59.4662L266.351 31.1648L246.409 30.9022L247.721 22.6062L280.299 22.4768L279.041 29.9235L253.865 58.0595L275.872 58.3195L274.364 66.6528Z" fill="#002103"/>
<path d="M157.566 30.675L150.642 66.5083L140.438 66.503L147.294 30.831L141.673 30.5456L143.396 22.007L149.053 21.895L151.373 11.7256C153.321 6.53231 157.837 2.9123 163.482 2.98164L176.622 3.14297C173.72 5.42564 171.93 9.17497 168.604 10.6616C166.132 11.767 162.578 10.815 161.11 14.227C160.136 16.495 159.588 19.2723 159.234 21.8776L170.144 21.9523L168.412 30.627L157.566 30.675Z" fill="#002103"/>
<path d="M107.251 26.2534C100.779 21.0614 92.0521 20.804 85.2175 24.8334C78.7788 28.6294 74.6308 36.5 75.9068 44.5214C77.9295 57.24 90.0295 65.8574 102.944 64.1894C89.7681 70.7667 72.8308 64.4014 68.2801 49.8214C63.4761 34.4294 74.4241 19.168 90.2055 17.3894C101.147 16.208 111.236 21.808 115.62 31.48C119.993 41.128 118.108 53.46 109.164 59.9534C103.972 63.7227 96.4388 62.7907 90.9841 60.332C100.195 61.3067 108.625 57.436 112.425 49.5267C116.18 41.7107 114.523 32.088 107.251 26.2534Z" fill="#002103"/>
<path d="M130.094 66.2749C126.787 67.0216 123.703 66.6536 119.923 66.4536L131.755 2.80959L142.059 2.71359L130.094 66.2749Z" fill="#002103"/>
<path d="M233.808 66.2422C230.774 67.0835 227.754 66.6088 224.446 66.6582L232.626 22.0422L241.852 22.0355L233.808 66.2422Z" fill="#002103"/>
<path d="M93.6841 89.3388C93.5161 90.2588 91.5774 90.3694 90.6988 90.1868L88.4988 79.3934C87.5268 74.6268 83.9534 72.3388 80.3228 68.5161C88.6894 71.6854 95.4734 71.4654 103.921 68.4934C99.8054 72.6254 96.2054 75.5294 95.2374 80.8334L93.6841 89.3388Z" fill="#002103"/>
<path d="M246.06 8.89911C245.844 12.0258 243.804 13.9884 241.558 14.7284C239.216 15.5018 236.155 15.1004 234.535 12.9538C232.611 10.4044 233.375 6.93511 235.324 4.82978C237.398 2.59111 240.863 1.91645 243.743 3.74845C245.298 4.73778 246.212 6.70711 246.06 8.89911Z" fill="#002103"/>
<path d="M105.139 54.6353C104.246 55.7153 101.682 56.9913 101.141 55.3566C100.594 53.7059 104.495 51.1433 105.523 52.3646C106.107 53.0566 105.989 53.6086 105.139 54.6353Z" fill="#002103"/>
<path d="M99.9849 51.0843C100.381 52.0577 98.6342 53.9577 96.5529 53.4577C96.1169 53.3537 95.5142 53.0883 95.6835 52.1923C95.8622 51.2483 97.4235 49.915 98.7062 49.9137C99.1422 49.9123 99.6969 50.3763 99.9849 51.0843Z" fill="#002103"/>
<path d="M105.953 46.438C107.333 47.4127 103.86 51.4434 102.448 50.198C101.236 49.1287 102.874 47.078 104.112 46.5354C104.825 46.2234 105.406 46.0527 105.953 46.438Z" fill="#002103"/>
<path d="M99.3102 56.3743C99.8435 58.125 95.0195 59.077 94.7875 57.3156C94.5128 55.2303 98.8155 54.7476 99.3102 56.3743Z" fill="#002103"/>
<path d="M109.445 44.8327C108.48 44.8247 108.618 42.4793 109.458 41.9233C110.098 41.5007 110.9 40.298 111.825 40.5393C112.418 42.446 111.772 44.85 109.445 44.8327Z" fill="#002103"/>
<path d="M107.639 51.4187C106.602 49.2734 108.351 47.0734 110.234 46.388C111.038 48.4934 110.188 50.56 107.639 51.4187Z" fill="#002103"/>
<path d="M106.876 41.2551C107.048 42.0005 105.253 43.8925 104.517 43.7578C103.366 43.5458 103.657 41.8178 104.316 40.9418C104.846 40.2351 106.392 39.1605 106.876 41.2551Z" fill="#002103"/>
<path d="M92.8636 56.0188C92.6329 57.2682 91.6983 57.6015 90.9769 57.5308C89.8556 57.4215 88.8076 57.2255 88.1836 56.1215C89.5969 55.3455 91.0223 55.3655 92.8636 56.0188Z" fill="#002103"/>
<path d="M93.0289 52.1768C93.8849 53.1421 92.6316 54.1248 91.9876 54.2541C90.9983 54.4528 89.3729 53.8488 89.7143 52.5661C89.9169 51.8021 92.1409 51.1755 93.0289 52.1768Z" fill="#002103"/>
<path d="M100.33 44.8453C100.404 45.8853 99.4632 46.644 98.1205 47.004C97.4138 47.1933 96.9378 46.7173 97.0325 46.0507C97.1725 45.064 98.1978 44.1387 99.3445 44.096C99.9312 44.0733 100.295 44.368 100.33 44.8453Z" fill="#002103"/>
<path d="M102.253 39.691C102.311 40.5097 101.571 41.107 100.514 41.3897C99.9579 41.5377 99.5832 41.1644 99.6579 40.6404C99.7686 39.863 100.575 39.135 101.478 39.1017C101.939 39.0844 102.226 39.315 102.253 39.691Z" fill="#002103"/>
<path d="M105.964 36.2244C106.006 36.819 105.468 37.2537 104.7 37.459C104.296 37.567 104.024 37.295 104.077 36.9137C104.158 36.3497 104.744 35.8204 105.4 35.795C105.736 35.783 105.944 35.951 105.964 36.2244Z" fill="#002103"/>
<path d="M95.6801 43.8167C95.4121 44.5273 94.7054 44.8193 93.9094 44.7553C93.4907 44.7207 93.3854 44.2953 93.6294 43.8727C93.9921 43.2473 94.7921 42.862 95.3947 43.094C95.7014 43.2113 95.8027 43.49 95.6801 43.8167Z" fill="#002103"/>
<path d="M93.1867 49.3299C92.0467 49.7832 91.1947 49.3245 91.1294 48.4712C91.0907 47.9779 91.6321 47.2099 92.4694 47.0205C93.1001 46.8779 93.9014 46.9819 94.1254 47.2912C94.5507 47.8792 94.4027 48.8472 93.1867 49.3299Z" fill="#002103"/>
<path d="M110.213 38.2837C109.44 39.0597 108.579 38.9877 108.223 38.3117C108.016 37.921 108.187 37.0997 108.805 36.6463C109.271 36.305 109.965 36.1063 110.257 36.2797C110.816 36.6103 111.037 37.4557 110.213 38.2837Z" fill="#002103"/>
<path d="M86.9669 53.552C87.0282 54.5467 85.9722 54.724 85.4189 54.672C84.8389 54.6187 83.4722 54.0027 83.9029 53.0067C84.3829 51.8987 86.8895 52.3054 86.9669 53.552Z" fill="#002103"/>
<path d="M87.8249 50.1086C86.9075 50.2899 86.2742 49.9432 86.2769 49.4206C86.2782 49.1179 86.7489 48.6966 87.4129 48.6499C87.9129 48.6139 88.5315 48.7432 88.6862 48.9486C88.9795 49.3406 88.8022 49.9152 87.8249 50.1086Z" fill="#002103"/>
<path d="M82.1904 50.7063C81.4104 50.861 80.8704 50.565 80.8731 50.121C80.8757 49.8636 81.2757 49.505 81.8397 49.465C82.2651 49.4356 82.7917 49.545 82.9224 49.7196C83.1731 50.053 83.0211 50.541 82.1904 50.7063Z" fill="#002103"/>
</svg>
