<?xml version="1.0" encoding="UTF-8"?>
<svg id="Layer_1" xmlns="http://www.w3.org/2000/svg" xmlns:xlink="http://www.w3.org/1999/xlink" version="1.1" viewBox="0 0 172.2 51.1">
  <!-- Generator: Adobe Illustrator 30.3.0, SVG Export Plug-In . SVG Version: 2.1.3 Build 182)  -->
  <defs>
    <style>
      .st0 {
        clip-path: url(#clippath-1);
      }

      .st1 {
        clip-path: url(#clippath-3);
      }

      .st2 {
        clip-path: url(#clippath-2);
      }

      .st3 {
        clip-path: url(#clippath);
      }
    </style>
    <clipPath id="clippath">
      <path d="M15.5,8.2c-1.8.6-2.2,2.6-2.8,4.3l-3.7,12.1h5.2l1.9-6.1h6.5l1-3.2h-5.1c-.4,0-.8,0-1,0-.2,0-.4,0-.5,0l1-3.4h6.6l1.4-3.9h-6.9s0,0,0,0c-.1,0-.3,0-.4,0-1.2,0-2.4,0-3.2.3"/>
    </clipPath>
    <clipPath id="clippath-1">
      <path d="M34.6,11.7v6.3h-3.6l3.6-6.3ZM34.3,7.9c-.1,0-.3,0-.6,0-.3,0-.6.2-1,.4-.4.2-.8.5-1.3.9-.5.4-.9,1-1.4,1.8l-8.4,13.4h5.4l2.1-3.5h5.3v3.5h4.8V7.9h-5Z"/>
    </clipPath>
    <clipPath id="clippath-2">
      <path d="M47.2,8.2c-3,.9-3.4,5.1-3.4,5.5,0,.4,0,.8,0,1.2,0,.4.2.7.3,1,.1.3.2.6.4.9.1.3.3.5.6.6.3.2.6.3,1,.4.4.1.8.2,1.3.2.5,0,.9,0,1.4.1.5,0,.9,0,1.3,0s.7,0,1,0c.4,0,.7.3.7.5s0,.4-.1.8c-.1.3-.3.5-.6.7-.3.1-.7.2-1.1.3-.4,0-.9,0-1.3,0h-6.8l-1,3.9h6.4c1.4,0,2.5,0,3.4-.1.9,0,1.6-.3,2.1-.5.9-.4,1.6-1,2.1-1.7.5-.8.9-1.6,1.2-2.5.3-.7.4-1.4.3-2.1,0-.7-.2-1.2-.5-1.6-.4-.5-.9-.9-1.7-1.1-.7-.2-1.8-.3-3.2-.3h-.8c-.2,0-.4,0-.6,0-.2,0-.3,0-.4,0-.1,0-.2,0-.4-.1-.3-.1-.5-.3-.6-.6-.1-.2,0-.6.1-.9.2-.3.7-1,2.2-1h7.4s1-4,1-4c0,0-9.3,0-9.6,0-.5,0-1,0-2.2.4"/>
    </clipPath>
    <clipPath id="clippath-3">
      <path d="M62.8,7.9c-1.8.1-1.8,3-1.7,4,.8,0,3,0,4.2,0l-4,12.7h5.2l4-12.7h4.3l1.3-3.9s-5.8,0-9.7,0-3.1,0-3.6,0"/>
    </clipPath>
  </defs>
  <g>
    <g>
      <path d="M42.3,38.2h4.3l-.3,2h-6.8l1.8-10.7h2.5l-1.5,8.7Z"/>
      <path d="M51.9,32.1c.7,0,1.3.2,1.8.5.5.3.9.8,1.1,1.4.2.6.3,1.3.3,2v.2c-.2,1.2-.6,2.2-1.4,2.9-.8.7-1.7,1.1-2.8,1.1-.7,0-1.3-.2-1.8-.5-.5-.3-.9-.8-1.1-1.4-.2-.6-.3-1.3-.3-2,.1-1.3.6-2.3,1.3-3.1s1.7-1.1,2.9-1.1ZM50.1,36.4v.4c0,1.1.2,1.6,1,1.7.9,0,1.5-.7,1.6-2.3v-.7c0-.4,0-.8-.2-1-.2-.3-.4-.4-.8-.4-.4,0-.8.2-1.1.5-.3.4-.5,1-.5,1.8Z"/>
      <path d="M55.9,36.2c0-.8.3-1.5.7-2.2s.8-1.1,1.3-1.5c.5-.3,1.1-.5,1.8-.5.8,0,1.4.3,1.8.9l.3-.7h2.2s-1.3,7.6-1.3,7.6c-.1,1.1-.6,1.9-1.4,2.5-.8.6-1.8.9-3,.9-.5,0-1-.1-1.5-.3-.5-.2-.9-.5-1.3-.9l1.1-1.4c.4.5,1,.8,1.7.8,1.1,0,1.7-.5,2-1.7v-.2c-.5.5-1.1.8-1.7.8-.5,0-1-.1-1.3-.4-.4-.3-.7-.6-.9-1.1-.2-.5-.3-1-.4-1.6,0-.3,0-.6,0-1.1ZM58.3,37c0,.4,0,.8.2,1,.2.2.4.4.7.4.5,0,.9-.2,1.2-.5l.6-3.4c-.2-.3-.5-.5-1-.5-.5,0-.9.2-1.2.6-.3.4-.5.9-.6,1.6,0,.3,0,.6,0,.8Z"/>
      <path d="M66.6,40.2h-2.4l1.4-7.9h2.4l-1.4,7.9ZM67.5,29.1h2.7l-2.3,2.3h-2.1s1.8-2.3,1.8-2.3Z"/>
      <path d="M72.6,37.9c0-.3-.2-.6-.7-.7h-.5c-.8-.4-1.5-.7-1.9-1.1-.4-.4-.6-.9-.6-1.4,0-.8.4-1.4,1-1.9s1.4-.7,2.4-.7c.9,0,1.7.2,2.3.7.6.5.9,1.1.9,1.9h-2.4c0-.6-.3-.9-.8-.9s-.5,0-.7.2c-.2.1-.3.3-.4.6,0,.4.3.7,1,.8.7.2,1.2.3,1.6.6.4.2.7.5.8.8.2.3.3.7.3,1.1,0,.5-.2.9-.5,1.3-.3.4-.7.7-1.3.9-.6.2-1.2.3-1.8.3-.6,0-1.1-.1-1.6-.4-.5-.2-.9-.6-1.1-1-.3-.4-.4-.9-.4-1.4h2.2c0,.7.4,1.1,1.1,1.1.3,0,.6,0,.8-.2.2-.1.3-.3.4-.6Z"/>
      <path d="M80.2,30.3l-.3,2h1.3l-.3,1.7h-1.3l-.6,3.6c0,.2,0,.4,0,.6,0,.1.2.2.5.2.1,0,.3,0,.6,0l-.2,1.8c-.4.1-.8.2-1.3.2-.7,0-1.3-.2-1.7-.7-.4-.4-.5-1-.5-1.7l.6-3.9h-1l.3-1.7h1l.3-2h2.4Z"/>
      <path d="M83.3,40.2h-2.4l1.4-7.9h2.4l-1.4,7.9ZM82.5,30.3c0-.4.1-.7.4-.9.3-.2.6-.4.9-.4s.7.1.9.3c.3.2.4.5.4.8,0,.4-.1.7-.4.9-.3.2-.6.4-1,.4s-.7-.1-.9-.3c-.3-.2-.4-.5-.4-.8Z"/>
      <path d="M88.5,38.4c.3,0,.6,0,.8-.3.2-.2.3-.5.4-.8h2.3c0,.6-.2,1.1-.5,1.6-.3.5-.7.8-1.3,1.1-.5.3-1.1.4-1.7.4-1.1,0-1.9-.4-2.4-1.1-.6-.7-.8-1.7-.7-2.9v-.2c.1-.8.3-1.5.7-2.1.4-.6.8-1.1,1.4-1.4.6-.3,1.2-.5,2-.5.9,0,1.7.3,2.2.9s.8,1.3.8,2.3h-2.3c0-.8-.3-1.3-.9-1.3-.8,0-1.3.7-1.5,2.1v.7c0,0,0,.3,0,.3,0,.8.3,1.2.8,1.2Z"/>
      <path d="M96.9,40.2c0-.2-.1-.4-.1-.7-.5.6-1.2.9-1.9.9-.7,0-1.3-.2-1.7-.7-.5-.4-.7-1-.6-1.6,0-.9.4-1.5,1.1-2,.7-.5,1.6-.7,2.8-.7h.8s0-.4,0-.4v-.4c0-.4-.2-.7-.6-.7-.5,0-.9.3-1,.9h-2.4c0-.5.2-1,.5-1.4.3-.4.8-.7,1.3-.9.6-.2,1.1-.3,1.8-.3.6,0,1.1.1,1.6.4.5.2.8.6,1,1,.2.4.3.9.3,1.5l-.6,3.7v.5c0,.4,0,.7.1.9h0c0,.1-2.3.1-2.3.1ZM95.6,38.6c.5,0,.9-.2,1.3-.7l.2-1.3h-.6c-.4,0-.7.1-1,.3-.3.2-.4.5-.5.9,0,.2,0,.4.1.5.1.1.3.2.5.2Z"/>
      <path d="M104.9,34.9l1.5-5.4h6.1l-.3,1.9h-4.1l-.7,2.1c.4-.3.9-.4,1.5-.4.9,0,1.7.3,2.2,1,.5.6.7,1.5.6,2.5,0,1.1-.5,2-1.3,2.6-.8.7-1.7,1-2.7,1-.6,0-1.2-.2-1.7-.4-.5-.3-.9-.7-1.2-1.1-.3-.5-.4-1-.4-1.6h2.4c0,.4.1.7.3.9.2.2.4.3.8.4.4,0,.7-.1,1-.5.3-.3.4-.8.5-1.4,0-.5,0-1-.2-1.2-.2-.3-.5-.4-.9-.4s-1,.2-1.3.5l-2-.5Z"/>
      <path d="M112.8,39.1c0-.4.1-.7.4-.9.3-.2.6-.4.9-.4s.7.1.9.3c.3.2.4.5.4.9,0,.4-.1.7-.4.9-.3.2-.6.4-1,.4s-.7-.1-.9-.3c-.2-.2-.4-.5-.4-.9Z"/>
      <path d="M120.6,40.3c-.6,0-1.1-.2-1.6-.4-.5-.3-.8-.7-1-1.2-.2-.5-.4-1.1-.4-1.8,0-.4,0-.7,0-1.1l.3-1.9c.2-1.5.7-2.6,1.4-3.4.7-.8,1.7-1.2,2.8-1.2.9,0,1.7.3,2.2.9.5.6.8,1.4.8,2.5,0,.4,0,.7,0,1.1l-.3,1.9c-.2,1.5-.7,2.7-1.5,3.4-.7.8-1.7,1.1-2.8,1.1ZM122.8,33.6c0-.3,0-.6,0-.9,0-.9-.3-1.4-.8-1.4-.9,0-1.4.7-1.6,2.2l-.4,2.6c0,.4,0,.7,0,.9,0,.9.3,1.4.8,1.4.9,0,1.4-.7,1.6-2.3l.4-2.6Z"/>
    </g>
    <g>
      <path d="M42.3,38.2h4.3l-.3,2h-6.8l1.8-10.7h2.5l-1.5,8.7Z"/>
      <path d="M51.9,32.1c.7,0,1.3.2,1.8.5.5.3.9.8,1.1,1.4.2.6.3,1.3.3,2v.2c-.2,1.2-.6,2.2-1.4,2.9-.8.7-1.7,1.1-2.8,1.1-.7,0-1.3-.2-1.8-.5-.5-.3-.9-.8-1.1-1.4-.2-.6-.3-1.3-.3-2,.1-1.3.6-2.3,1.3-3.1s1.7-1.1,2.9-1.1ZM50.1,36.4v.4c0,1.1.2,1.6,1,1.7.9,0,1.5-.7,1.6-2.3v-.7c0-.4,0-.8-.2-1-.2-.3-.4-.4-.8-.4-.4,0-.8.2-1.1.5-.3.4-.5,1-.5,1.8Z"/>
      <path d="M55.9,36.2c0-.8.3-1.5.7-2.2s.8-1.1,1.3-1.5c.5-.3,1.1-.5,1.8-.5.8,0,1.4.3,1.8.9l.3-.7h2.2s-1.3,7.6-1.3,7.6c-.1,1.1-.6,1.9-1.4,2.5-.8.6-1.8.9-3,.9-.5,0-1-.1-1.5-.3-.5-.2-.9-.5-1.3-.9l1.1-1.4c.4.5,1,.8,1.7.8,1.1,0,1.7-.5,2-1.7v-.2c-.5.5-1.1.8-1.7.8-.5,0-1-.1-1.3-.4-.4-.3-.7-.6-.9-1.1-.2-.5-.3-1-.4-1.6,0-.3,0-.6,0-1.1ZM58.3,37c0,.4,0,.8.2,1,.2.2.4.4.7.4.5,0,.9-.2,1.2-.5l.6-3.4c-.2-.3-.5-.5-1-.5-.5,0-.9.2-1.2.6-.3.4-.5.9-.6,1.6,0,.3,0,.6,0,.8Z"/>
      <path d="M66.6,40.2h-2.4l1.4-7.9h2.4l-1.4,7.9ZM67.5,29.1h2.7l-2.3,2.3h-2.1s1.8-2.3,1.8-2.3Z"/>
      <path d="M72.6,37.9c0-.3-.2-.6-.7-.7h-.5c-.8-.4-1.5-.7-1.9-1.1-.4-.4-.6-.9-.6-1.4,0-.8.4-1.4,1-1.9s1.4-.7,2.4-.7c.9,0,1.7.2,2.3.7.6.5.9,1.1.9,1.9h-2.4c0-.6-.3-.9-.8-.9s-.5,0-.7.2c-.2.1-.3.3-.4.6,0,.4.3.7,1,.8.7.2,1.2.3,1.6.6.4.2.7.5.8.8.2.3.3.7.3,1.1,0,.5-.2.9-.5,1.3-.3.4-.7.7-1.3.9-.6.2-1.2.3-1.8.3-.6,0-1.1-.1-1.6-.4-.5-.2-.9-.6-1.1-1-.3-.4-.4-.9-.4-1.4h2.2c0,.7.4,1.1,1.1,1.1.3,0,.6,0,.8-.2.2-.1.3-.3.4-.6Z"/>
      <path d="M80.2,30.3l-.3,2h1.3l-.3,1.7h-1.3l-.6,3.6c0,.2,0,.4,0,.6,0,.1.2.2.5.2.1,0,.3,0,.6,0l-.2,1.8c-.4.1-.8.2-1.3.2-.7,0-1.3-.2-1.7-.7-.4-.4-.5-1-.5-1.7l.6-3.9h-1l.3-1.7h1l.3-2h2.4Z"/>
      <path d="M83.3,40.2h-2.4l1.4-7.9h2.4l-1.4,7.9ZM82.5,30.3c0-.4.1-.7.4-.9.3-.2.6-.4.9-.4s.7.1.9.3c.3.2.4.5.4.8,0,.4-.1.7-.4.9-.3.2-.6.4-1,.4s-.7-.1-.9-.3c-.3-.2-.4-.5-.4-.8Z"/>
      <path d="M88.5,38.4c.3,0,.6,0,.8-.3.2-.2.3-.5.4-.8h2.3c0,.6-.2,1.1-.5,1.6-.3.5-.7.8-1.3,1.1-.5.3-1.1.4-1.7.4-1.1,0-1.9-.4-2.4-1.1-.6-.7-.8-1.7-.7-2.9v-.2c.1-.8.3-1.5.7-2.1.4-.6.8-1.1,1.4-1.4.6-.3,1.2-.5,2-.5.9,0,1.7.3,2.2.9s.8,1.3.8,2.3h-2.3c0-.8-.3-1.3-.9-1.3-.8,0-1.3.7-1.5,2.1v.7c0,0,0,.3,0,.3,0,.8.3,1.2.8,1.2Z"/>
      <path d="M96.9,40.2c0-.2-.1-.4-.1-.7-.5.6-1.2.9-1.9.9-.7,0-1.3-.2-1.7-.7-.5-.4-.7-1-.6-1.6,0-.9.4-1.5,1.1-2,.7-.5,1.6-.7,2.8-.7h.8s0-.4,0-.4v-.4c0-.4-.2-.7-.6-.7-.5,0-.9.3-1,.9h-2.4c0-.5.2-1,.5-1.4.3-.4.8-.7,1.3-.9.6-.2,1.1-.3,1.8-.3.6,0,1.1.1,1.6.4.5.2.8.6,1,1,.2.4.3.9.3,1.5l-.6,3.7v.5c0,.4,0,.7.1.9h0c0,.1-2.3.1-2.3.1ZM95.6,38.6c.5,0,.9-.2,1.3-.7l.2-1.3h-.6c-.4,0-.7.1-1,.3-.3.2-.4.5-.5.9,0,.2,0,.4.1.5.1.1.3.2.5.2Z"/>
      <path d="M104.9,34.9l1.5-5.4h6.1l-.3,1.9h-4.1l-.7,2.1c.4-.3.9-.4,1.5-.4.9,0,1.7.3,2.2,1,.5.6.7,1.5.6,2.5,0,1.1-.5,2-1.3,2.6-.8.7-1.7,1-2.7,1-.6,0-1.2-.2-1.7-.4-.5-.3-.9-.7-1.2-1.1-.3-.5-.4-1-.4-1.6h2.4c0,.4.1.7.3.9.2.2.4.3.8.4.4,0,.7-.1,1-.5.3-.3.4-.8.5-1.4,0-.5,0-1-.2-1.2-.2-.3-.5-.4-.9-.4s-1,.2-1.3.5l-2-.5Z"/>
      <path d="M112.8,39.1c0-.4.1-.7.4-.9.3-.2.6-.4.9-.4s.7.1.9.3c.3.2.4.5.4.9,0,.4-.1.7-.4.9-.3.2-.6.4-1,.4s-.7-.1-.9-.3c-.2-.2-.4-.5-.4-.9Z"/>
      <path d="M120.6,40.3c-.6,0-1.1-.2-1.6-.4-.5-.3-.8-.7-1-1.2-.2-.5-.4-1.1-.4-1.8,0-.4,0-.7,0-1.1l.3-1.9c.2-1.5.7-2.6,1.4-3.4.7-.8,1.7-1.2,2.8-1.2.9,0,1.7.3,2.2.9.5.6.8,1.4.8,2.5,0,.4,0,.7,0,1.1l-.3,1.9c-.2,1.5-.7,2.7-1.5,3.4-.7.8-1.7,1.1-2.8,1.1ZM122.8,33.6c0-.3,0-.6,0-.9,0-.9-.3-1.4-.8-1.4-.9,0-1.4.7-1.6,2.2l-.4,2.6c0,.4,0,.7,0,.9,0,.9.3,1.4.8,1.4.9,0,1.4-.7,1.6-2.3l.4-2.6Z"/>
    </g>
  </g>
  <g>
    <path d="M15.5,8.2c-1.8.6-2.2,2.6-2.8,4.3l-3.7,12.1h5.2l1.9-6.1h6.5l1-3.2h-5.1c-.4,0-.8,0-1,0-.2,0-.4,0-.5,0l1-3.4h6.6l1.4-3.9h-6.9s0,0,0,0c-.1,0-.3,0-.4,0-1.2,0-2.4,0-3.2.3"/>
    <g class="st3">
      <rect x="9" y="7.9" width="17.1" height="16.6"/>
    </g>
  </g>
  <g>
    <path d="M34.6,11.7v6.3h-3.6l3.6-6.3ZM34.3,7.9c-.1,0-.3,0-.6,0-.3,0-.6.2-1,.4-.4.2-.8.5-1.3.9-.5.4-.9,1-1.4,1.8l-8.4,13.4h5.4l2.1-3.5h5.3v3.5h4.8V7.9h-5Z"/>
    <g class="st0">
      <rect x="21.6" y="7.9" width="17.6" height="16.6"/>
    </g>
  </g>
  <g>
    <path d="M47.2,8.2c-3,.9-3.4,5.1-3.4,5.5,0,.4,0,.8,0,1.2,0,.4.2.7.3,1,.1.3.2.6.4.9.1.3.3.5.6.6.3.2.6.3,1,.4.4.1.8.2,1.3.2.5,0,.9,0,1.4.1.5,0,.9,0,1.3,0s.7,0,1,0c.4,0,.7.3.7.5s0,.4-.1.8c-.1.3-.3.5-.6.7-.3.1-.7.2-1.1.3-.4,0-.9,0-1.3,0h-6.8l-1,3.9h6.4c1.4,0,2.5,0,3.4-.1.9,0,1.6-.3,2.1-.5.9-.4,1.6-1,2.1-1.7.5-.8.9-1.6,1.2-2.5.3-.7.4-1.4.3-2.1,0-.7-.2-1.2-.5-1.6-.4-.5-.9-.9-1.7-1.1-.7-.2-1.8-.3-3.2-.3h-.8c-.2,0-.4,0-.6,0-.2,0-.3,0-.4,0-.1,0-.2,0-.4-.1-.3-.1-.5-.3-.6-.6-.1-.2,0-.6.1-.9.2-.3.7-1,2.2-1h7.4s1-4,1-4c0,0-9.3,0-9.6,0-.5,0-1,0-2.2.4"/>
    <g class="st2">
      <rect x="40.9" y="7.8" width="18.2" height="16.7"/>
    </g>
  </g>
  <path d="M100,19.9h-3.2l-1.5,4.7h-5l5.2-16.6h8.7c.6,0,1.2,0,1.8.2.6.1,1.1.4,1.6.7.5.3.8.7,1.1,1.2.3.5.4,1,.4,1.7s-.1,1.7-.4,2.6c-.3.8-.6,1.6-1.1,2.4-.4.5-.8,1-1.3,1.5-.5.5-1,.9-1.6,1.2l1.8,5.2h-4.9l-1.7-4.7ZM100.4,16.5c.4,0,.8,0,1.1,0,.3,0,.5-.1.7-.2.2-.1.4-.2.5-.4.1-.1.3-.3.4-.4.4-.4.6-.8.8-1.2.2-.5.3-.9.3-1.5s0-.4-.1-.6c0-.2-.2-.4-.3-.5-.1-.2-.3-.3-.5-.4-.2,0-.4-.1-.6-.1h-3.2l-1.7,5.5h2.6Z"/>
  <path d="M115.6,21.1l-2.1,3.5h-5.4l8.4-13.4c.5-.8.9-1.3,1.4-1.8.5-.4.9-.7,1.3-.9.4-.2.7-.3,1-.4.3,0,.5,0,.6,0h5v16.6h-4.8v-3.5h-5.3ZM121,18.1v-6.3l-3.6,6.3h3.6Z"/>
  <path d="M133.7,20.3c.2.2.4.3.6.3,1.3.2,2.6.3,3.9.3,1.3,0,2.6-.1,3.8-.4l-1.2,4.1c-3.2.5-6.4.5-9.7.2-.7,0-1.3-.3-1.8-.7-.5-.4-.8-.9-1-1.4-.2-.6-.4-1.1-.4-1.8,0-.6,0-1.2,0-1.8.1-.6.3-1.3.5-2.1.2-.8.4-1.6.7-2.4.3-.8.6-1.6,1-2.4.4-.8.8-1.5,1.4-2.1.5-.6,1.1-1.1,1.8-1.5.7-.4,1.5-.6,2.3-.6h10.2l-1.3,4h-7.7c-.2,0-.4,0-.6.2-.2.1-.4.3-.5.5-.6,1.1-1.2,2.2-1.6,3.4-.4,1.2-.7,2.4-.8,3.7,0,.2,0,.4.2.6"/>
  <polygon points="143.4 24.6 148.7 8 153.8 8 151.9 13.7 158.3 8 163.2 8 154.2 15.6 158.7 24.6 153.8 24.6 150.7 17.7 148.5 24.6 143.4 24.6"/>
  <path d="M79.4,7.9c-1.8.1-1.8,3-1.7,4,.8,0,3,0,4.2,0l-4,12.7h5.2l4-12.7h4.3l1.3-3.9s-11.6-.1-13.3,0"/>
  <g>
    <path d="M62.8,7.9c-1.8.1-1.8,3-1.7,4,.8,0,3,0,4.2,0l-4,12.7h5.2l4-12.7h4.3l1.3-3.9s-5.8,0-9.7,0-3.1,0-3.6,0"/>
    <g class="st1">
      <rect x="60.9" y="7.8" width="15.1" height="16.7"/>
    </g>
  </g>
</svg>